<?xml version="1.0" encoding="UTF-8"?>
<svg width="491px" height="90px" viewBox="0 0 491 90" version="1.1" xmlns="http://www.w3.org/2000/svg" xmlns:xlink="http://www.w3.org/1999/xlink">
    <!-- Generator: Sketch 42 (36781) - http://www.bohemiancoding.com/sketch -->
    <title>PACM Logo Bold</title>
    <desc>Created with Sketch.</desc>
    <defs>
        <linearGradient x1="92.0510675%" y1="23.7336024%" x2="9.36786267%" y2="75.7982962%" id="linearGradient-1">
            <stop stop-color="#E74C3C" offset="0%"></stop>
            <stop stop-color="#6E6C6C" offset="50.0416301%"></stop>
            <stop stop-color="#3498DB" offset="100%"></stop>
        </linearGradient>
        <linearGradient x1="73.4076261%" y1="89.5932887%" x2="34.584981%" y2="17.854095%" id="linearGradient-2">
            <stop stop-color="#FFFFFF" offset="0%"></stop>
            <stop stop-color="#000000" offset="100%"></stop>
        </linearGradient>
        <ellipse id="path-3" cx="45" cy="45" rx="12.5" ry="12.5"></ellipse>
        <filter x="-50%" y="-50%" width="200%" height="200%" filterUnits="objectBoundingBox" id="filter-4">
            <feOffset dx="1" dy="2" in="SourceAlpha" result="shadowOffsetOuter1"></feOffset>
            <feGaussianBlur stdDeviation="2" in="shadowOffsetOuter1" result="shadowBlurOuter1"></feGaussianBlur>
            <feColorMatrix values="0 0 0 0 0   0 0 0 0 0   0 0 0 0 0  0 0 0 0.5 0" type="matrix" in="shadowBlurOuter1"></feColorMatrix>
        </filter>
    </defs>
    <g id="Page-1" stroke="none" stroke-width="1" fill="none" fill-rule="evenodd">
        <g id="PACM-Logo" transform="translate(-24.000000, -107.000000)">
            <g id="PACM-Logo-Bold" transform="translate(24.000000, 99.000000)">
                <g id="PACM-Data-Logo-Copy" transform="translate(0.000000, 8.000000)">
                    <polygon id="Letter-P-Stem" fill="#3498DB" points="22.5 45 30 41.1989537 30 87.5510463 22.5 83.75"></polygon>
                    <polygon id="Letter-D-Stem" fill="#E74C3C" points="60 2.4689035 67.5 6.25 67.5 45 60 48.7810965"></polygon>
                    <circle id="Center-Circle" fill="url(#linearGradient-1)" cx="45" cy="45" r="22.5"></circle>
                    <path d="M38.4200154,66.5225998 C40.5013076,67.1581085 42.7107273,67.5 45,67.5 C52.9679048,67.5 59.9684573,63.3582723 63.9662243,57.11025 C63.8187231,56.3067263 63.5195654,55.4953174 63.0582716,54.7053624 L58.4876606,46.8782958 C56.2650878,43.0721908 51.084039,41.1805644 46.926324,42.671827 L42.4751017,44.268363 C38.3225938,45.757758 35.4913515,50.5102293 36.1629753,54.8791333 L37.5659067,64.0051831 C37.7103682,64.9449028 38.0050573,65.79002 38.4200154,66.5225998 Z" id="Center-Circle-Shadow-Gradient" fill-opacity="0.4" fill="url(#linearGradient-2)" opacity="0.625339674"></path>
                    <g id="Center-Cirlce-Cutout">
                        <use fill="black" fill-opacity="1" filter="url(#filter-4)" xlink:href="#path-3"></use>
                        <use fill="#FFFFFF" fill-rule="evenodd" xlink:href="#path-3"></use>
                    </g>
                    <path d="M70,7.57774518 C82.0598574,15.6503586 90,29.3979195 90,45 C90,69.8528137 69.8528137,90 45,90 C40.6626505,90 36.4686238,89.3863622 32.5,88.2411667 L32.5,77.7018559 C36.3819993,79.1866073 40.5960106,80 45,80 C64.3299662,80 80,64.3299662 80,45 C80,35.4634746 76.1859351,26.8177718 70,20.5050863 L70,7.57774518 Z M57.5,1.75883333 L57.5,12.2981441 C53.6180007,10.8133927 49.4039894,10 45,10 C25.6700338,10 10,25.6700338 10,45 C10,54.5365254 13.8140649,63.1822282 20,69.4949137 L20,82.4222548 C7.94014257,74.3496414 0,60.6020805 0,45 C0,20.1471863 20.1471863,0 45,0 C49.3373495,0 53.5313762,0.613637799 57.5,1.75883333 Z" id="Outer-Circle" fill="#18BC9C"></path>
                    <path d="M32.5,44.8743556 C32.5677445,38.0286085 38.1382344,32.5 45,32.5 C51.8617656,32.5 57.4322555,38.0286085 57.5,44.8743556 L32.5,44.8743556 Z" id="Half-Circle" fill="#E3E3E3"></path>
                </g>
                <text id="PACM-DATA" font-family="RobotoCondensed-Bold, Roboto Condensed" font-size="90" font-style="condensed" font-weight="bold" letter-spacing="-5" fill="#2C3E50">
                    <tspan x="100" y="83">PACM DAT</tspan>
                    <tspan x="438.500977" y="83" letter-spacing="-4">A</tspan>
                </text>
            </g>
        </g>
    </g>
</svg>